<?xml version="1.0" encoding="UTF-8"?>
<svg xmlns="http://www.w3.org/2000/svg" xmlns:xlink="http://www.w3.org/1999/xlink" width="2752" height="2064" viewBox="0 0 2752 2064">
<rect x="-275.2" y="-206.4" width="3302.4" height="2476.8" fill="rgb(25.099182%, 48.999023%, 21.998596%)" fill-opacity="1"/>
<path fill-rule="nonzero" fill="rgb(100%, 100%, 100%)" fill-opacity="1" d="M 1390.140625 880.394531 C 1381.769531 879.714844 1369.691406 878.972656 1368.164062 890.371094 C 1369.390625 891.460938 1380.917969 887.734375 1383.527344 886.679688 C 1386.832031 885.339844 1391.417969 885.257812 1390.140625 880.394531 M 1252.152344 878.402344 C 1240.414062 878.78125 1228.90625 879.9375 1217.125 880.375 C 1214.707031 880.464844 1209.691406 878.886719 1210.164062 882.363281 C 1217.679688 879.765625 1233.195312 890.320312 1237.164062 890.347656 C 1240.769531 890.371094 1250.441406 882.183594 1252.152344 878.402344 M 1440.152344 886.363281 C 1434.421875 877.890625 1424.148438 870.871094 1414.164062 868.394531 C 1408.628906 874.074219 1435.867188 885.871094 1440.152344 886.363281 M 1210.140625 866.402344 C 1205.171875 866.511719 1200.117188 866.171875 1195.128906 866.382812 C 1192.699219 866.488281 1187.695312 864.871094 1188.164062 868.363281 C 1193.132812 868.257812 1198.1875 868.597656 1203.175781 868.382812 C 1205.605469 868.277344 1210.609375 869.898438 1210.140625 866.402344 M 1107.734375 834.824219 C 1105.035156 833.246094 1099.503906 834.859375 1096.152344 834.402344 C 1098.75 838.945312 1107.765625 843.769531 1112.144531 841.394531 C 1109.910156 840.363281 1108.78125 835.4375 1107.734375 834.824219 M 1210.140625 824.402344 C 1200.289062 823.921875 1190.167969 822.96875 1184.152344 832.363281 C 1189.820312 832.808594 1195.226562 831.417969 1200.578125 829.808594 C 1203.046875 829.066406 1209.773438 827.367188 1210.140625 824.402344 M 1240.152344 812.363281 C 1234.640625 803.191406 1222.523438 798.605469 1212.152344 798.402344 C 1218.714844 811.753906 1225.339844 814.257812 1240.152344 812.363281 M 1098.140625 812.375 C 1099.4375 801.636719 1092.882812 797.769531 1084.171875 794.382812 C 1082.863281 795.789062 1095.34375 815.578125 1098.140625 812.375 M 1544.171875 756.382812 C 1551.742188 754.261719 1554.082031 747.835938 1554.132812 740.382812 C 1550.296875 740.917969 1542.710938 754.640625 1544.171875 756.382812 M 1610.148438 720.371094 C 1590.140625 633.449219 1523.757812 568.257812 1438.144531 545.394531 C 1192.402344 479.761719 887.703125 726.386719 904.070312 981.46875 C 911.8125 1102.195312 1004.804688 1185.347656 1121.410156 1200.125 C 1136.09375 1201.988281 1191.640625 1205.5625 1202.082031 1199.3125 C 1203.917969 1198.21875 1218.011719 1176.109375 1222.101562 1171.332031 C 1249.976562 1138.769531 1289.179688 1112.214844 1326.808594 1092.039062 C 1377.089844 1065.074219 1431.757812 1053.792969 1445.222656 988.453125 C 1448.789062 971.148438 1450.339844 915.75 1439.097656 902.4375 C 1436.628906 899.511719 1405.929688 885.035156 1404.152344 886.402344 L 1404.148438 902.378906 L 1398.164062 902.375 C 1397.003906 895.15625 1402.464844 894.101562 1402.152344 886.402344 C 1395.105469 888.328125 1389.898438 893.664062 1382.585938 895.816406 C 1376.171875 897.703125 1352.082031 902.777344 1354.96875 892.238281 C 1355.632812 889.816406 1367.050781 877.113281 1366.152344 876.402344 C 1332.378906 871.367188 1298.128906 871.058594 1264.375 876.601562 C 1266.617188 884.855469 1255.882812 914.296875 1245.367188 906.285156 C 1240.582031 902.636719 1244.730469 896.378906 1236.164062 898.402344 C 1236.503906 900.652344 1243.707031 902.152344 1240.085938 906.28125 C 1239.5625 906.878906 1226.125 912.144531 1225.09375 908.394531 L 1226.164062 902.394531 C 1211.046875 898.179688 1207.292969 914.121094 1198.058594 917.277344 C 1177.601562 924.273438 1186.53125 905.96875 1185.285156 904.324219 C 1182.902344 901.1875 1170.808594 903.820312 1172.164062 897.414062 C 1173.683594 890.234375 1200.132812 898.828125 1206.152344 896.363281 L 1200.152344 887.402344 L 1206.144531 882.402344 C 1181.839844 881.199219 1158.121094 879.554688 1136.765625 866.769531 C 1131.203125 863.441406 1124.40625 855.746094 1120.007812 853.527344 C 1108.683594 847.808594 1083.03125 848.710938 1086.34375 828.554688 L 1100.144531 825.394531 L 1085.144531 812.390625 C 1080.226562 825.746094 1068.730469 810.792969 1082.175781 809.363281 C 1078.027344 801.863281 1074.933594 795.363281 1076.144531 786.375 L 1098.144531 790.378906 C 1095.527344 776.988281 1110.726562 735.324219 1125.292969 734.410156 C 1141.570312 733.394531 1134.820312 753.992188 1136.628906 764.90625 C 1141.367188 793.496094 1186.15625 811.863281 1212.152344 812.363281 C 1189.464844 787.28125 1203.242188 782.554688 1229.539062 794 C 1239.050781 798.140625 1244.554688 805.171875 1253.019531 810.242188 L 1298.152344 798.363281 C 1283.054688 781.394531 1268.21875 812.886719 1248.613281 799.902344 L 1247.085938 794.1875 L 1252.121094 784.449219 C 1247.171875 783.21875 1226.097656 766.613281 1226.074219 763.421875 C 1226.050781 760.734375 1227.433594 759.964844 1229.199219 758.375 L 1236.132812 762.382812 C 1234.121094 750.238281 1238.230469 739.804688 1249.457031 751.074219 C 1258.507812 760.15625 1253.828125 772.898438 1257.105469 778.429688 C 1259.628906 782.679688 1275.09375 785.226562 1280.160156 784.394531 C 1280.1875 777.8125 1278.316406 770.386719 1285.132812 766.792969 C 1298.15625 772.015625 1304.4375 784.144531 1313.320312 794.039062 C 1353.332031 786.359375 1396.367188 776.003906 1434.867188 794.667969 L 1482.140625 822.375 C 1481.171875 804.285156 1490.773438 786.753906 1505.484375 776.714844 C 1510.25 773.457031 1534.960938 763.511719 1535.828125 762.066406 C 1536.738281 760.554688 1536.167969 753.34375 1537.679688 748.898438 C 1539.464844 743.648438 1549.714844 728.941406 1555.230469 728.308594 L 1561.253906 730.289062 L 1563.140625 744.371094 C 1577.148438 734.027344 1591.535156 719.84375 1610.148438 720.371094 M 1660.167969 688.375 C 1663.207031 689.089844 1663.375 687.945312 1665.03125 686.265625 C 1674.007812 677.171875 1684.824219 658.429688 1694.207031 647.4375 C 1721.925781 614.972656 1801.589844 542.847656 1843.273438 536.515625 C 1869.511719 532.527344 1883.546875 558.734375 1865.230469 576.460938 C 1857.714844 583.738281 1830.042969 594.367188 1818.308594 601.539062 C 1672.035156 690.929688 1581.40625 913.234375 1628.722656 1078.816406 C 1648.679688 1148.664062 1700.160156 1215.03125 1777.410156 1222.125 C 1795.109375 1223.75 1834.875 1215.652344 1842.640625 1234.894531 C 1863.585938 1286.8125 1761.753906 1268.597656 1737.71875 1261.816406 C 1647.316406 1236.304688 1593.429688 1150.394531 1576.132812 1062.394531 L 1531.796875 1133.027344 C 1513.78125 1173.101562 1538.96875 1222.035156 1585.242188 1220.457031 C 1594.226562 1220.152344 1613.945312 1212.949219 1617.71875 1225.796875 C 1626.921875 1257.15625 1569.144531 1252.589844 1551.605469 1245.929688 C 1524.125 1235.496094 1499.109375 1202.601562 1496.171875 1173.363281 C 1490.277344 1114.730469 1528.488281 1091.9375 1549.867188 1045.097656 C 1568.007812 1005.34375 1564.601562 970.558594 1549.085938 930.449219 C 1542.066406 912.308594 1514.644531 873.441406 1556.929688 882.609375 L 1574.128906 910.367188 C 1578.949219 888.367188 1582.972656 866.085938 1589.15625 844.386719 C 1594.9375 824.101562 1613.511719 787.472656 1616.023438 771.261719 C 1618.042969 758.230469 1618.796875 748.210938 1603.296875 750.5 C 1590.15625 752.4375 1566.570312 780.59375 1551.195312 784.390625 L 1548.164062 779.414062 C 1565.390625 766.738281 1582.183594 751.84375 1601.277344 742.511719 L 1614.144531 742.371094 L 1610.925781 732.246094 C 1594.640625 727.683594 1565.363281 755.542969 1551.195312 764.425781 C 1525.773438 780.359375 1487.589844 788.429688 1492.316406 827.183594 C 1493.71875 838.675781 1501.765625 841.613281 1508.097656 849.4375 C 1513.480469 856.085938 1529.617188 870.949219 1515.148438 874.445312 C 1510.71875 874.445312 1483.105469 841.332031 1476.179688 835.355469 C 1455.796875 817.753906 1422.183594 800.824219 1395.121094 798.414062 C 1374.851562 796.609375 1356.140625 801.519531 1336.160156 802.394531 C 1334.191406 809.175781 1342.636719 804.105469 1344.148438 806.410156 C 1344.421875 806.824219 1344.964844 812.261719 1342.945312 812.546875 C 1333.242188 817.757812 1322.648438 806.972656 1313.898438 807.429688 C 1297.261719 808.296875 1271.851562 820.042969 1254.222656 823.453125 C 1235.015625 827.171875 1230.53125 825.304688 1212.222656 833.453125 C 1200.917969 838.488281 1181.953125 846.472656 1172.570312 835.410156 L 1184.152344 818.398438 C 1150.851562 809.59375 1118.585938 784.960938 1126.140625 746.394531 C 1121.902344 741.542969 1112.261719 766.289062 1111.550781 768.78125 C 1097.882812 816.648438 1127.152344 861.902344 1177.136719 866.402344 L 1176.164062 858.394531 C 1189.84375 861.742188 1213.4375 854.261719 1225.152344 856.359375 C 1227.484375 856.773438 1228.734375 857.453125 1230.113281 859.382812 C 1229.050781 860.238281 1228.28125 861.746094 1227.25 862.476562 C 1222.257812 866.011719 1216.125 862.15625 1214.164062 866.363281 C 1224.847656 865.300781 1254.140625 866.890625 1262.597656 862.34375 C 1268.214844 859.320312 1278.238281 838.148438 1291.210938 846.324219 L 1292.15625 852.363281 C 1284.851562 853.125 1275.753906 855.296875 1272.152344 862.363281 C 1316.5625 857.773438 1362.148438 859.929688 1405.128906 872.40625 L 1403.125 862.320312 C 1407.964844 851.660156 1431.097656 867.167969 1437.199219 872.335938 C 1447.539062 881.089844 1449.867188 889.824219 1456.78125 897.765625 C 1462.617188 904.46875 1475.371094 911.921875 1483.179688 920.355469 C 1488.183594 925.753906 1508.929688 951.273438 1511.082031 956.449219 C 1515.121094 966.15625 1508.8125 972.332031 1500.753906 965.746094 C 1497.71875 963.265625 1496.148438 955.765625 1492.171875 954.394531 C 1495.074219 978.082031 1494.21875 1001.355469 1489.5625 1024.792969 C 1474.195312 1102.195312 1413.792969 1132.847656 1377.808594 1197.039062 C 1372.695312 1206.164062 1364.890625 1237.699219 1350.953125 1226.566406 L 1348.25 1213.53125 L 1375.164062 1160.394531 C 1353.003906 1177.167969 1330.402344 1194.78125 1315.320312 1218.550781 C 1309.183594 1228.226562 1303.304688 1252.140625 1290.96875 1244.570312 C 1282.460938 1237.671875 1299.382812 1211.324219 1304.523438 1203.753906 C 1338.808594 1153.300781 1396.757812 1141.761719 1435.179688 1098.410156 C 1464.464844 1065.371094 1477.757812 1029.808594 1480.132812 985.363281 C 1481.035156 968.507812 1481.039062 941.984375 1471.140625 928.394531 C 1475.636719 961.832031 1472.582031 994.621094 1458.5 1025.730469 C 1431.71875 1084.898438 1376.503906 1098.519531 1325.539062 1128.769531 C 1296.453125 1146.027344 1269.128906 1166.535156 1246.164062 1191.394531 C 1259.128906 1192.371094 1273.492188 1204.671875 1262.191406 1217.433594 C 1254.261719 1226.394531 1206.390625 1233.472656 1193.132812 1234.363281 C 974.296875 1249.054688 826.386719 1082.5625 879.503906 866.734375 C 925.519531 679.765625 1112.320312 522.535156 1301.4375 496.667969 C 1447.371094 476.710938 1616.207031 535.847656 1660.167969 688.375 "/>
<path fill-rule="nonzero" fill="rgb(100%, 100%, 100%)" fill-opacity="1" d="M 1643.6875 1330.890625 C 1596.597656 1336.730469 1578.117188 1421.785156 1637.03125 1412.261719 C 1679.964844 1405.316406 1696.605469 1324.328125 1643.6875 1330.890625 M 1690.175781 1344.382812 C 1700.023438 1333.398438 1716.511719 1305.617188 1733.199219 1318.386719 L 1733.890625 1324.976562 C 1732.523438 1329.703125 1720.789062 1333.558594 1716.351562 1337.582031 C 1701.957031 1350.648438 1695.378906 1378.484375 1698.28125 1397.253906 C 1702.675781 1425.710938 1730.359375 1401.851562 1733.859375 1415.792969 C 1736.109375 1424.753906 1721.464844 1429.492188 1714.652344 1429.894531 C 1697.289062 1430.917969 1684.738281 1414.023438 1682.128906 1398.386719 C 1659.339844 1432.664062 1600.46875 1446.632812 1585.167969 1398.367188 C 1572.042969 1356.972656 1615.839844 1307.558594 1658.679688 1314.863281 C 1672.09375 1317.148438 1689.09375 1330.296875 1690.175781 1344.382812 "/>
<path fill-rule="nonzero" fill="rgb(100%, 100%, 100%)" fill-opacity="1" d="M 1067.625 1330.863281 C 1021.476562 1338.421875 1002.871094 1422.265625 1062.675781 1411.902344 C 1106.640625 1404.28125 1120.507812 1322.203125 1067.625 1330.863281 M 1118.128906 1344.378906 C 1118.09375 1332.765625 1151.789062 1303.292969 1159.253906 1318.417969 C 1164.09375 1328.21875 1150.945312 1329.800781 1146.273438 1333.511719 C 1128.578125 1347.578125 1112.148438 1388.296875 1128.117188 1407.421875 C 1137.40625 1418.546875 1146.902344 1407.714844 1154.121094 1411.308594 C 1166.632812 1422.441406 1147.453125 1430.707031 1137.300781 1430.246094 C 1121.988281 1429.550781 1107.851562 1413.417969 1108.132812 1398.382812 C 1089.824219 1419.28125 1062.65625 1438.886719 1033.671875 1425.863281 C 976.996094 1400.398438 1022.546875 1302.214844 1086.269531 1315.269531 C 1102.871094 1318.667969 1109.445312 1331.902344 1118.128906 1344.378906 "/>
<path fill-rule="nonzero" fill="rgb(100%, 100%, 100%)" fill-opacity="1" d="M 1382.613281 1425.921875 C 1380.886719 1424.25 1380.386719 1419.90625 1380.164062 1417.425781 C 1377.566406 1388.457031 1409.292969 1390.457031 1404.015625 1357.503906 C 1396.765625 1312.25 1311.804688 1323.183594 1329.6875 1377.84375 C 1334.625 1392.929688 1362.574219 1401.1875 1349.917969 1423.152344 C 1344.375 1432.773438 1302.402344 1435.691406 1311.097656 1418.375 C 1314.894531 1410.8125 1344.601562 1418.566406 1330.863281 1404.671875 C 1313.660156 1387.265625 1305.394531 1372.597656 1314.019531 1347.25 C 1332.351562 1293.378906 1427.71875 1304.714844 1420.15625 1373.390625 C 1418.128906 1391.785156 1405.628906 1397.566406 1396.203125 1411.394531 C 1396.496094 1417.242188 1426.882812 1409.675781 1421.929688 1425.074219 C 1419.152344 1433.695312 1387.191406 1430.359375 1382.613281 1425.921875 "/>
<path fill-rule="nonzero" fill="rgb(100%, 100%, 100%)" fill-opacity="1" d="M 1534.132812 1356.382812 C 1514.25 1371.640625 1498.183594 1371.734375 1478.171875 1356.382812 C 1479.117188 1375.96875 1476.839844 1396.152344 1469.113281 1414.34375 C 1466.160156 1421.292969 1458.574219 1438.226562 1449.964844 1427.550781 C 1445.285156 1421.75 1456.644531 1402.324219 1458.71875 1393.949219 C 1462.136719 1380.164062 1465.882812 1345.898438 1457.148438 1334.390625 C 1452.332031 1328.046875 1435.566406 1329.558594 1444.976562 1316.21875 C 1476.472656 1307.757812 1469.902344 1347.84375 1498.707031 1356.8125 C 1532.988281 1367.488281 1537.015625 1314.253906 1561.152344 1314.203125 C 1568.730469 1314.1875 1572.59375 1316.949219 1569.875 1325.070312 C 1568.601562 1328.871094 1558.894531 1330.40625 1555.296875 1336.527344 C 1546.871094 1350.871094 1550.671875 1379.15625 1554.746094 1394.789062 C 1556.839844 1402.808594 1574.988281 1437.285156 1553.46875 1430.101562 C 1543.40625 1426.742188 1531.089844 1368.355469 1534.132812 1356.382812 "/>
<path fill-rule="nonzero" fill="rgb(100%, 100%, 100%)" fill-opacity="1" d="M 1224.152344 1345.382812 C 1225.621094 1354.546875 1223.082031 1366.800781 1224.152344 1376.382812 C 1234.796875 1367.445312 1265.371094 1358.882812 1266.273438 1343.34375 C 1267.5 1322.21875 1231.894531 1323.582031 1218.148438 1328.402344 C 1216.675781 1330.035156 1223.722656 1342.695312 1224.152344 1345.382812 M 1286.074219 1418.472656 C 1287.195312 1419.796875 1286.398438 1427.378906 1283 1428.15625 C 1281.375 1428.527344 1259.324219 1423.007812 1255.71875 1421.816406 C 1240.273438 1416.703125 1231.621094 1409.472656 1220.175781 1398.386719 C 1217.730469 1405.953125 1210.238281 1430.929688 1201.492188 1429.863281 C 1185.535156 1427.917969 1199.820312 1409.101562 1202.230469 1401.460938 C 1207.796875 1383.800781 1212.976562 1353.078125 1202.996094 1336.542969 C 1199.535156 1330.8125 1180.757812 1322.070312 1190.976562 1314.222656 C 1200.421875 1306.96875 1206.726562 1319.867188 1213.058594 1320.195312 C 1217.027344 1320.398438 1223.828125 1316.816406 1229.171875 1316.402344 C 1247.476562 1314.996094 1275.585938 1317.664062 1276.324219 1341.367188 C 1277.175781 1368.730469 1228.066406 1377.46875 1228.140625 1389.347656 C 1228.269531 1410.535156 1283.894531 1415.890625 1286.074219 1418.472656 "/>
<path fill-rule="nonzero" fill="rgb(100%, 100%, 100%)" fill-opacity="1" d="M 1458.140625 834.375 L 1417.394531 814.527344 L 1416.15625 808.394531 C 1419.585938 804.929688 1451.066406 820.683594 1454.929688 824.609375 C 1458.367188 828.101562 1458.804688 829.332031 1458.140625 834.375 "/>
<path fill-rule="nonzero" fill="rgb(100%, 100%, 100%)" fill-opacity="1" d="M 1368.152344 808.375 L 1369.039062 802.273438 C 1371.53125 798.882812 1391.882812 801.667969 1397.222656 802.3125 C 1405.75 803.34375 1406.855469 808.972656 1399.148438 810.367188 C 1388.90625 812.214844 1378.316406 807.855469 1368.152344 808.375 "/>
<path fill-rule="nonzero" fill="rgb(100%, 100%, 100%)" fill-opacity="1" d="M 1188.164062 788.394531 C 1192.027344 784.53125 1200.515625 794.746094 1193.121094 796.375 C 1188.914062 797.300781 1186.707031 789.847656 1188.164062 788.394531 "/>
<path fill-rule="nonzero" fill="rgb(100%, 100%, 100%)" fill-opacity="1" d="M 1572.894531 1495.917969 C 1573.046875 1495.6875 1577.449219 1494.226562 1578.1875 1494.269531 C 1584.863281 1494.652344 1586.898438 1511.914062 1590.597656 1516.492188 C 1592.195312 1516.492188 1597.113281 1496.78125 1601.730469 1494.683594 C 1603.890625 1493.703125 1608.304688 1494.65625 1608.304688 1497.152344 L 1608.304688 1534.625 C 1607.136719 1534.757812 1602.542969 1534.859375 1602.542969 1533.390625 L 1602.542969 1507.449219 C 1598.136719 1510.363281 1595.527344 1527.484375 1590.453125 1527.921875 C 1586.441406 1528.265625 1581.402344 1510.101562 1579.472656 1506.625 C 1579.246094 1506.355469 1577.835938 1507.683594 1577.835938 1507.859375 L 1577.835938 1534.625 L 1572.894531 1534.625 Z M 1572.894531 1495.917969 "/>
<path fill-rule="nonzero" fill="rgb(100%, 100%, 100%)" fill-opacity="1" d="M 1260.753906 1519.800781 L 1260.753906 1496.332031 C 1260.753906 1494.285156 1266.519531 1495.605469 1266.519531 1495.917969 L 1266.519531 1534.214844 C 1266.519531 1534.542969 1265.433594 1535.484375 1264.578125 1535.355469 C 1258.992188 1534.535156 1248.785156 1511.566406 1242.636719 1508.273438 L 1242.636719 1534.625 L 1237.695312 1534.625 L 1237.695312 1495.09375 C 1240.027344 1494.914062 1242.09375 1495.109375 1243.890625 1496.722656 C 1249.980469 1502.195312 1253.894531 1514.402344 1260.753906 1519.800781 "/>
<path fill-rule="nonzero" fill="rgb(100%, 100%, 100%)" fill-opacity="1" d="M 1352.996094 1533.390625 C 1352.054688 1536.882812 1346.867188 1536.585938 1346.367188 1530.136719 C 1345.722656 1521.761719 1345.628906 1506.3125 1346.5 1498.0625 C 1346.578125 1497.292969 1347.117188 1494.328125 1347.726562 1494.222656 C 1349.632812 1493.90625 1352.996094 1493.917969 1352.996094 1496.332031 L 1352.996094 1509.09375 L 1368.644531 1509.09375 L 1368.644531 1495.507812 C 1368.644531 1493.90625 1373.894531 1494.207031 1375.234375 1494.269531 L 1375.234375 1534.214844 C 1375.234375 1535.675781 1370.632812 1535.589844 1369.464844 1535.453125 C 1370.1875 1531.351562 1368.753906 1527.3125 1368.566406 1523.511719 C 1368.449219 1521.125 1369.957031 1518.5625 1368.644531 1515.683594 L 1352.996094 1515.683594 C 1352.167969 1520.433594 1354.121094 1529.222656 1352.996094 1533.390625 "/>
<path fill-rule="nonzero" fill="rgb(100%, 100%, 100%)" fill-opacity="1" d="M 1184.984375 1495.917969 L 1184.984375 1518.566406 C 1184.984375 1520.859375 1188.648438 1526.246094 1190.789062 1527.589844 C 1195.847656 1530.761719 1204.75 1525.910156 1204.75 1521.039062 L 1204.75 1496.332031 C 1204.75 1494.917969 1209.105469 1494.382812 1210.589844 1496.257812 C 1211.816406 1497.804688 1211.53125 1510.648438 1211.375 1513.664062 C 1211.222656 1516.660156 1210.847656 1521.367188 1210.453125 1524.265625 C 1208.695312 1537.203125 1186.273438 1538.699219 1181.074219 1527.417969 C 1180.757812 1526.730469 1179.21875 1522.15625 1179.21875 1521.863281 L 1179.21875 1496.332031 L 1180.519531 1495.167969 Z M 1184.984375 1495.917969 "/>
<path fill-rule="nonzero" fill="rgb(100%, 100%, 100%)" fill-opacity="1" d="M 1309.957031 1493.605469 C 1312.5 1493.351562 1319.921875 1496.292969 1320.714844 1498.964844 C 1323.804688 1509.347656 1312.613281 1500.132812 1309.757812 1500.136719 C 1303.261719 1500.152344 1298.132812 1508.523438 1297.777344 1514.417969 C 1297.402344 1520.691406 1301.519531 1528.628906 1308.324219 1529.542969 C 1313.292969 1530.210938 1315.179688 1525.265625 1318.007812 1524.753906 C 1322.554688 1523.929688 1324.796875 1525.410156 1322.0625 1529.640625 C 1317.65625 1536.464844 1304.816406 1537.0625 1298.363281 1532.847656 C 1287.691406 1525.875 1289.019531 1501.890625 1301.101562 1496.320312 C 1302.453125 1495.695312 1308.671875 1493.730469 1309.957031 1493.605469 "/>
<path fill-rule="nonzero" fill="rgb(100%, 100%, 100%)" fill-opacity="1" d="M 1640.3125 1597.148438 C 1640.613281 1598.511719 1640.296875 1615.789062 1640.441406 1617.574219 C 1640.539062 1617.886719 1641.121094 1617.703125 1641.429688 1617.625 C 1645.285156 1616.53125 1650.945312 1608.125 1654.738281 1609.648438 C 1654.972656 1609.746094 1655.1875 1609.886719 1655.375 1610.070312 C 1656.507812 1611.371094 1656.402344 1614.078125 1655.503906 1615.441406 C 1654.472656 1616.796875 1650.15625 1618.792969 1649.714844 1620.757812 C 1650.238281 1624.339844 1660.4375 1631.359375 1658.226562 1636.796875 C 1655.398438 1642.183594 1646.777344 1628.800781 1644.511719 1625.8125 C 1644.246094 1625.503906 1643.835938 1625.527344 1643.472656 1625.691406 C 1641.988281 1626.386719 1641.027344 1627.8125 1640.667969 1629.246094 C 1640.109375 1631.324219 1640.402344 1633.835938 1640.429688 1636.222656 C 1640.648438 1638.171875 1639.171875 1637.558594 1637.390625 1637.652344 C 1636.132812 1637.589844 1635.292969 1637.78125 1634.65625 1637.5625 C 1634.617188 1636.34375 1634.648438 1611.40625 1634.636719 1601.542969 C 1634.648438 1599.398438 1634.617188 1598 1634.652344 1597.636719 C 1634.980469 1597.144531 1635.667969 1596.464844 1636.738281 1596.609375 C 1637.769531 1596.742188 1639.320312 1596.941406 1640.257812 1597.125 Z M 1640.3125 1597.148438 "/>
<path fill-rule="nonzero" fill="rgb(100%, 100%, 100%)" fill-opacity="1" d="M 918.144531 1597.21875 L 918.144531 1609.984375 C 918.144531 1612.410156 923.921875 1608.960938 925.203125 1608.777344 C 927.527344 1608.445312 933.65625 1609.835938 935.226562 1611.433594 C 935.398438 1611.609375 937.085938 1614.726562 937.085938 1614.925781 L 937.085938 1637.574219 L 931.320312 1637.574219 L 931.320312 1618.21875 C 931.320312 1616.5 927.128906 1615.101562 925.207031 1615.355469 C 923.484375 1615.582031 918.144531 1619.789062 918.144531 1620.691406 L 918.144531 1636.339844 C 918.144531 1638.382812 912.378906 1637.0625 912.378906 1636.75 L 912.378906 1597.632812 C 912.378906 1595.585938 916.855469 1597.152344 918.144531 1597.21875 "/>
<path fill-rule="nonzero" fill="rgb(100%, 100%, 100%)" fill-opacity="1" d="M 868.730469 1597.21875 L 874.5 1597.214844 C 874.519531 1601.613281 874.109375 1606.058594 875.394531 1610.316406 C 877.222656 1610.617188 885.605469 1609.75 886.066406 1611.738281 C 887.835938 1619.328125 877.714844 1614.710938 875.429688 1616.269531 C 873.605469 1617.507812 872.992188 1632.832031 880.488281 1631.683594 C 883.546875 1631.214844 883.996094 1628 885.195312 1627.277344 C 891.464844 1623.5 891.835938 1634.65625 884.242188 1637.023438 C 877.542969 1639.113281 870.1875 1637.082031 868.925781 1629.558594 C 868.339844 1626.085938 869.492188 1619.988281 868.628906 1617.496094 C 868.042969 1615.808594 863.753906 1616.117188 863.753906 1613.277344 C 863.753906 1610.53125 868.730469 1610.175781 868.730469 1609.160156 Z M 868.730469 1597.21875 "/>
<path fill-rule="nonzero" fill="rgb(100%, 100%, 100%)" fill-opacity="1" d="M 1244.285156 1628.101562 C 1244.339844 1628.300781 1246.746094 1630.785156 1247.121094 1631.03125 C 1252.242188 1634.394531 1253.914062 1626.636719 1256.347656 1626.195312 C 1260.75 1625.402344 1260.117188 1633.636719 1255.570312 1636.097656 C 1250.855469 1638.644531 1242.71875 1638.417969 1239.820312 1633.390625 C 1237.421875 1629.234375 1239.15625 1616.753906 1238.523438 1616.15625 C 1238.09375 1615.75 1231.324219 1617.511719 1234.382812 1611.625 C 1242.007812 1610.378906 1236.605469 1600.78125 1238.894531 1597.183594 C 1239.691406 1595.929688 1243.914062 1596.980469 1244.199219 1597.300781 C 1245.140625 1598.378906 1243.058594 1607.136719 1245.085938 1609.179688 C 1247.015625 1611.121094 1254.417969 1610.238281 1255.785156 1611.25 C 1256.09375 1611.476562 1256.238281 1615.472656 1254.46875 1616.050781 C 1252.832031 1616.582031 1244.285156 1615.652344 1244.285156 1616.160156 C 1244.859375 1619.402344 1243.492188 1625.304688 1244.285156 1628.101562 "/>
<path fill-rule="nonzero" fill="rgb(100%, 100%, 100%)" fill-opacity="1" d="M 1067.210938 1616.164062 C 1061.921875 1616.625 1059.894531 1610.535156 1054.554688 1614.621094 C 1052.640625 1616.085938 1052.699219 1617.003906 1054.421875 1618.664062 C 1058.160156 1622.257812 1068.503906 1618.707031 1069.632812 1625.679688 C 1071.464844 1637.03125 1064.835938 1638.425781 1055.238281 1637.609375 C 1050.769531 1637.230469 1046.320312 1635.800781 1046.15625 1630.5625 C 1045.964844 1624.546875 1053.296875 1630.980469 1054.636719 1631.617188 C 1061.449219 1634.867188 1066.738281 1629.039062 1062.226562 1626.5 C 1059.667969 1625.058594 1055.910156 1625.601562 1053.183594 1624.835938 C 1044.65625 1622.445312 1045.859375 1610.015625 1053.667969 1608.792969 C 1059.804688 1607.828125 1069.570312 1607.453125 1067.210938 1616.164062 "/>
<path fill-rule="nonzero" fill="rgb(100%, 100%, 100%)" fill-opacity="1" d="M 1212.164062 1636.75 L 1206.398438 1636.75 L 1206.398438 1619.042969 C 1206.398438 1617.605469 1203.015625 1614.457031 1201.0625 1614.445312 C 1198.785156 1614.433594 1193.222656 1617.660156 1193.222656 1619.867188 L 1193.222656 1636.75 L 1187.457031 1636.75 L 1187.457031 1609.984375 C 1187.457031 1608.808594 1190.640625 1608.4375 1191.871094 1608.855469 C 1193.222656 1609.320312 1193.457031 1611.742188 1194.53125 1612 C 1195.597656 1612.253906 1200.9375 1608.136719 1205.78125 1608.925781 C 1209.003906 1609.449219 1212.164062 1612.503906 1212.164062 1615.75 Z M 1212.164062 1636.75 "/>
<path fill-rule="nonzero" fill="rgb(100%, 100%, 100%)" fill-opacity="1" d="M 1113.332031 1628.511719 C 1115.789062 1638.761719 1100.335938 1639.398438 1094.421875 1635.488281 C 1088.226562 1631.390625 1088.300781 1614.476562 1095.449219 1611.042969 C 1100.679688 1608.53125 1116.449219 1608.511719 1112.5625 1617.453125 C 1108.734375 1619.136719 1105.429688 1613.703125 1101.785156 1614.839844 C 1100.570312 1615.21875 1097.578125 1617.941406 1096.855469 1619.035156 C 1092.960938 1624.933594 1098.382812 1633.210938 1105.332031 1631.652344 C 1108.097656 1631.03125 1109.511719 1627.257812 1113.332031 1628.511719 "/>
<path fill-rule="nonzero" fill="rgb(100%, 100%, 100%)" fill-opacity="1" d="M 1724.3125 1636.503906 C 1723.703125 1637.519531 1721.972656 1637.808594 1721.011719 1637.480469 C 1716.28125 1635.261719 1719.667969 1623.445312 1718.65625 1619.046875 C 1718.164062 1615.933594 1713.597656 1617.441406 1714.570312 1613.464844 C 1714.738281 1612.617188 1715.269531 1611.769531 1715.984375 1611.332031 C 1716.785156 1610.851562 1717.613281 1610.34375 1717.796875 1609.363281 C 1718.4375 1606.691406 1717.089844 1602.816406 1719.1875 1599.8125 C 1721.433594 1596.757812 1726.011719 1595.984375 1729.558594 1596.484375 C 1731.996094 1596.917969 1733.890625 1598.34375 1733.664062 1600.988281 C 1733.605469 1601.269531 1733.527344 1601.589844 1733.308594 1601.777344 C 1732.964844 1602.128906 1732.339844 1602.113281 1731.71875 1602.101562 C 1728.703125 1602.097656 1725.523438 1602.449219 1724.007812 1604.921875 C 1722.058594 1608.3125 1724.019531 1610.4375 1727.488281 1611.402344 C 1728.898438 1612 1730.863281 1612.101562 1730.914062 1613.882812 C 1730.824219 1616.503906 1726.554688 1616.503906 1725.128906 1617.429688 C 1724.625 1617.730469 1724.46875 1618.128906 1724.453125 1618.660156 C 1724.398438 1622.882812 1725.304688 1633.109375 1724.375 1636.394531 Z M 1724.3125 1636.503906 "/>
<path fill-rule="nonzero" fill="rgb(100%, 100%, 100%)" fill-opacity="1" d="M 1137.21875 1528.863281 L 1156.160156 1528.863281 C 1156.292969 1530.03125 1156.390625 1534.625 1154.925781 1534.625 L 1132.6875 1534.625 C 1132.601562 1534.625 1131.453125 1533.480469 1131.453125 1533.390625 L 1131.453125 1496.332031 C 1131.453125 1495.488281 1133.441406 1495.035156 1134.332031 1495.023438 C 1138.363281 1494.960938 1136.382812 1497.15625 1136.351562 1499.574219 C 1136.226562 1509.425781 1137.613281 1519.011719 1137.21875 1528.863281 "/>
<path fill-rule="nonzero" fill="rgb(100%, 100%, 100%)" fill-opacity="1" d="M 1371.113281 1619.042969 C 1370.519531 1616.914062 1363.613281 1616.496094 1367.488281 1611.257812 C 1367.964844 1610.613281 1369.3125 1610.578125 1369.492188 1609.832031 C 1370.246094 1606.679688 1368.886719 1604.117188 1371.238281 1600.222656 C 1374.460938 1594.878906 1386.625 1594.347656 1385.117188 1602.160156 C 1380.820312 1601.855469 1374.859375 1601.855469 1375.15625 1607.515625 C 1375.414062 1612.453125 1379.832031 1610.367188 1382.699219 1612.550781 C 1383.046875 1617.898438 1376.054688 1616.324219 1376.054688 1618.21875 L 1376.054688 1636.339844 C 1376.054688 1637.976562 1371.113281 1637.976562 1371.113281 1636.339844 C 1371.113281 1632.519531 1371.878906 1621.78125 1371.113281 1619.042969 "/>
<path fill-rule="nonzero" fill="rgb(100%, 100%, 100%)" fill-opacity="1" d="M 1492.179688 1608.75 C 1495.308594 1607.320312 1497.261719 1611.234375 1497.582031 1611.269531 C 1499.617188 1611.476562 1500.796875 1609.347656 1502.636719 1608.917969 C 1506.125 1608.097656 1512 1608.871094 1512.023438 1613.273438 C 1512.054688 1619.441406 1506.265625 1613.65625 1504.113281 1613.714844 C 1503.09375 1613.742188 1499.292969 1616.457031 1498.714844 1617.339844 C 1496.90625 1620.09375 1498.558594 1631.300781 1496.984375 1636.199219 C 1496.183594 1638.6875 1492.179688 1637.457031 1492.179688 1636.339844 Z M 1492.179688 1608.75 "/>
<path fill-rule="nonzero" fill="rgb(100%, 100%, 100%)" fill-opacity="1" d="M 1521.277344 1503.597656 C 1508.003906 1516.917969 1526.480469 1540.5 1539.558594 1523.117188 C 1549.246094 1510.238281 1532.257812 1492.574219 1521.277344 1503.597656 M 1528.222656 1493.59375 C 1532.246094 1493.066406 1541.871094 1497.429688 1544.429688 1500.910156 C 1553.21875 1512.871094 1547.828125 1534.101562 1531.300781 1535.445312 C 1514.578125 1536.804688 1509.253906 1523.226562 1511.191406 1508.75 C 1512.242188 1500.886719 1520.734375 1494.574219 1528.222656 1493.59375 "/>
<path fill-rule="nonzero" fill="rgb(100%, 100%, 100%)" fill-opacity="1" d="M 1467.265625 1500.21875 C 1457.691406 1501.726562 1452.824219 1514.894531 1458.40625 1522.691406 C 1464.121094 1530.667969 1472.226562 1532.0625 1478.523438 1523.851562 C 1485.78125 1514.378906 1478.898438 1498.386719 1467.265625 1500.21875 M 1455.402344 1530.226562 C 1446.472656 1521.296875 1448.269531 1502.453125 1460.140625 1496.410156 C 1465.953125 1493.453125 1469.769531 1493.0625 1475.699219 1495.519531 C 1496.457031 1504.109375 1490.078125 1538.0625 1466.320312 1535.363281 C 1462.710938 1534.953125 1457.96875 1532.796875 1455.402344 1530.226562 "/>
<path fill-rule="nonzero" fill="rgb(100%, 100%, 100%)" fill-opacity="1" d="M 1453.898438 1614.023438 C 1447.972656 1613.804688 1445.152344 1623.105469 1447.8125 1627.996094 C 1450.789062 1633.464844 1459.445312 1633.242188 1460.105469 1627.320312 C 1460.640625 1622.488281 1460.480469 1614.269531 1453.898438 1614.023438 M 1465.71875 1608.859375 C 1466.296875 1609.25 1466.621094 1612.277344 1466.691406 1613.242188 C 1467.125 1619.230469 1467.421875 1639.316406 1465.183594 1643.929688 C 1462.054688 1650.375 1451.316406 1651.089844 1445.453125 1648.476562 C 1443.078125 1647.421875 1440.554688 1643.726562 1443.125 1641.625 C 1445.933594 1639.328125 1448.851562 1643.683594 1451.453125 1644.144531 C 1456.945312 1645.121094 1460.789062 1641.417969 1460.054688 1635.925781 C 1444.71875 1642.8125 1436.433594 1628.660156 1442.15625 1615.140625 C 1444.195312 1610.316406 1450.496094 1608.074219 1455.492188 1608.78125 C 1456.78125 1608.964844 1458.035156 1610.109375 1458.828125 1610.109375 C 1460.007812 1610.109375 1463.664062 1607.464844 1465.71875 1608.859375 "/>
<path fill-rule="nonzero" fill="rgb(100%, 100%, 100%)" fill-opacity="1" d="M 1602.539062 1619.449219 C 1603.554688 1618.070312 1598.222656 1613.832031 1596.320312 1613.707031 C 1592.28125 1613.441406 1585.421875 1619.367188 1590.597656 1620.28125 C 1592.292969 1620.578125 1601.867188 1620.359375 1602.539062 1619.449219 M 1588.539062 1625.21875 C 1588.179688 1629.753906 1593.375 1633.085938 1597.402344 1632.09375 C 1600.554688 1631.320312 1604.390625 1626.652344 1607.09375 1629.332031 C 1609.761719 1631.972656 1605.535156 1636.398438 1602.566406 1637.1875 C 1599.402344 1638.027344 1592.671875 1637.882812 1589.511719 1637.015625 C 1581.246094 1634.75 1581.054688 1622.242188 1583.410156 1615.558594 C 1586.601562 1606.496094 1605.082031 1605.773438 1607.75 1615.484375 C 1608.199219 1617.117188 1609.183594 1625.21875 1607.070312 1625.21875 Z M 1588.539062 1625.21875 "/>
<path fill-rule="nonzero" fill="rgb(100%, 100%, 100%)" fill-opacity="1" d="M 1417.03125 1502.707031 C 1415.675781 1501.289062 1408.324219 1499.15625 1406.472656 1500.398438 C 1405.0625 1502.046875 1405.5 1511.507812 1406.640625 1512.28125 C 1407.257812 1512.703125 1412.199219 1512.476562 1413.363281 1512.222656 C 1417.445312 1511.320312 1419.929688 1505.75 1417.03125 1502.707031 M 1400.765625 1496.332031 C 1401.957031 1492.402344 1418.363281 1494.765625 1421.3125 1497.195312 C 1426.394531 1501.382812 1425.386719 1512.535156 1419.71875 1516.097656 C 1422.546875 1518.769531 1429.070312 1528.453125 1429.359375 1531.890625 C 1429.675781 1535.648438 1425.695312 1535.71875 1423.382812 1533.832031 C 1417.984375 1529.425781 1417.589844 1515.832031 1406.53125 1518.976562 L 1406.53125 1531.746094 C 1406.53125 1535.277344 1403.449219 1534.851562 1400.765625 1534.625 Z M 1400.765625 1496.332031 "/>
<path fill-rule="nonzero" fill="rgb(100%, 100%, 100%)" fill-opacity="1" d="M 1765.390625 1613.816406 C 1756.121094 1615.585938 1756.941406 1633.738281 1767.597656 1632.632812 C 1778.382812 1631.515625 1775.980469 1611.792969 1765.390625 1613.816406 M 1762.921875 1608.941406 C 1777.039062 1606.558594 1783.179688 1616.292969 1780.078125 1629.394531 C 1778.039062 1638.011719 1767.007812 1639.480469 1759.796875 1637.210938 C 1750.308594 1634.226562 1750.28125 1611.078125 1762.921875 1608.941406 "/>
<path fill-rule="nonzero" fill="rgb(100%, 100%, 100%)" fill-opacity="1" d="M 1864.222656 1614.648438 C 1856.421875 1615.789062 1854.164062 1628.59375 1862.324219 1631.863281 C 1871.160156 1635.40625 1876.132812 1622.824219 1869.816406 1616.960938 C 1868.671875 1615.902344 1865.753906 1614.421875 1864.222656 1614.648438 M 1878.441406 1597.21875 L 1878.441406 1637.574219 C 1875.976562 1638.765625 1872.773438 1636.035156 1871.589844 1636.085938 C 1870.398438 1636.140625 1868.476562 1637.375 1866.507812 1637.578125 C 1845.066406 1640.996094 1847.660156 1604.617188 1867.960938 1608.941406 C 1879.5 1614.65625 1865.421875 1592.585938 1878.441406 1597.21875 "/>
<path fill-rule="nonzero" fill="rgb(100%, 100%, 100%)" fill-opacity="1" d="M 1330.539062 1613.816406 C 1319.414062 1615.941406 1323.664062 1638.851562 1335.660156 1631.355469 C 1343.757812 1626.296875 1338.878906 1612.222656 1330.539062 1613.816406 M 1327.234375 1608.929688 C 1333.539062 1607.640625 1342.429688 1608.90625 1344.375 1616.132812 C 1345.523438 1620.40625 1345.433594 1631.363281 1342.3125 1634.714844 C 1338.484375 1638.816406 1325.046875 1639.179688 1321.324219 1635.066406 C 1315.710938 1628.855469 1317.246094 1610.980469 1327.234375 1608.929688 "/>
<path fill-rule="nonzero" fill="rgb(100%, 100%, 100%)" fill-opacity="1" d="M 1552.304688 1619.449219 C 1551.589844 1612.550781 1543.613281 1612.171875 1539.960938 1617.417969 C 1539.191406 1620.871094 1550.179688 1620.539062 1552.304688 1619.449219 M 1539.949219 1625.222656 C 1539.679688 1625.453125 1539.941406 1628.503906 1540.355469 1629.34375 C 1541.199219 1631.035156 1545.523438 1632.566406 1547.390625 1632.285156 C 1549.910156 1631.910156 1558.625 1624.769531 1558.675781 1630.710938 C 1558.738281 1638.8125 1543.320312 1639.144531 1538.363281 1636.277344 C 1530.195312 1631.550781 1530.648438 1613.589844 1539.753906 1609.789062 C 1543.265625 1608.328125 1549.875 1608.074219 1553.351562 1609.761719 C 1558.484375 1612.246094 1561.792969 1625.222656 1558.480469 1625.222656 Z M 1539.949219 1625.222656 "/>
<path fill-rule="nonzero" fill="rgb(100%, 100%, 100%)" fill-opacity="1" d="M 1155.335938 1619.445312 C 1153.355469 1614.578125 1148.976562 1611.832031 1144.199219 1615.316406 C 1143.515625 1615.816406 1141.335938 1618.617188 1141.351562 1619.046875 C 1141.445312 1621.152344 1153.347656 1620.402344 1155.335938 1619.445312 M 1142.160156 1625.21875 C 1141.886719 1625.453125 1142.148438 1628.503906 1142.566406 1629.34375 C 1143.796875 1631.8125 1149.113281 1632.566406 1151.550781 1631.792969 C 1153.148438 1631.28125 1162.25 1624.738281 1160.972656 1631.214844 C 1159.523438 1638.570312 1148.722656 1638.59375 1142.929688 1637.21875 C 1133.492188 1634.972656 1132.171875 1616.867188 1139.390625 1611.332031 C 1143.808594 1607.945312 1154.683594 1607.351562 1158.652344 1611.609375 C 1160.726562 1613.839844 1163.816406 1625.21875 1160.691406 1625.21875 Z M 1142.160156 1625.21875 "/>
<path fill-rule="nonzero" fill="rgb(100%, 100%, 100%)" fill-opacity="1" d="M 1814.804688 1613.8125 C 1813.210938 1614.121094 1810.621094 1616.476562 1809.710938 1617.847656 C 1802.984375 1627.949219 1816.035156 1638.402344 1822.445312 1628.933594 C 1826.632812 1622.757812 1821.886719 1612.433594 1814.804688 1613.8125 M 1806.210938 1635.679688 C 1802.472656 1632.285156 1802.019531 1623.089844 1802.859375 1618.410156 C 1805.207031 1605.402344 1827.554688 1604.941406 1829.046875 1618.199219 C 1829.542969 1622.589844 1829.660156 1631.40625 1826.578125 1634.714844 C 1822.933594 1638.621094 1809.996094 1639.113281 1806.210938 1635.679688 "/>
<path fill-rule="nonzero" fill="rgb(100%, 100%, 100%)" fill-opacity="1" d="M 978.015625 1615.59375 C 974.867188 1612.796875 971.152344 1613.539062 968.179688 1616.144531 C 965.84375 1618.191406 965.0625 1619.917969 968.757812 1620.320312 C 972.5625 1620.730469 984.332031 1621.210938 978.015625 1615.59375 M 967.972656 1625.21875 C 963.847656 1626.410156 970.113281 1633.011719 975 1632.285156 C 977.695312 1631.886719 983.757812 1625.804688 985.097656 1629.5625 C 986.871094 1634.554688 981.234375 1637.238281 977.070312 1637.617188 C 962.765625 1638.914062 958.703125 1632.738281 960.144531 1619.039062 C 961.175781 1609.222656 974.507812 1605.78125 981.863281 1610.503906 C 985.742188 1612.996094 988.277344 1625.21875 985.265625 1625.21875 C 981.53125 1625.21875 970.585938 1624.46875 967.972656 1625.21875 "/>
</svg>
